<svg width="2102" height="801" viewBox="0 0 2102 801" fill="none" xmlns="http://www.w3.org/2000/svg">
<g clip-path="url(#clip0_344:14)">
<path d="M2101.5 0V449.2C2099.8 451.5 2093.8 459.6 2082.5 471.9C2022.2 537.6 1812.3 722.9 1320.7 784.4C1280.8 789.4 1239 793.6 1195.4 796.8H1195.3C1146.5 799 1097.7 800.1 1048.8 800.1C1034 800.1 1019.2 800 1004.4 799.7C1003.6 799.7 1002.7 799.7 1001.9 799.7C993.7 799.6 985.6 799.4 977.4 799.2C911.3 797.7 845.3 794 779.8 788.3C230.3 735 50.5 520.9 9.8 459.8C4.5 451.9 1.6 446.5 0.5 444.4V0H2101.5Z" fill="#002246"/>
<path d="M1051 800.5C1034.1 800.5 1017.5 800.4 1001.2 800.2C921.4 799.1 847.8 795 779.8 788.4C230.3 735 50.5 520.9 9.8 459.8C4.5 451.9 1.6 446.5 0.5 444.4C0.2 443.7 0 443.4 0 443.4C0.2 443.5 0.3 443.7 0.5 443.8C289.5 720 609.1 712.8 1029 796.2C1035.6 797.5 1042.2 798.8 1048.7 800.1C1050.2 800.4 1051 800.5 1051 800.5Z" fill="#ED6A5A"/>
<path d="M2102 444.5C2102 444.5 2101.8 444.8 2101.5 445.2C2099.9 447.5 2094.3 455.6 2083.9 467.9C2027.8 533.6 1832.5 718.9 1375.1 780.4C1338 785.4 1299.1 789.6 1258.5 792.8H1258.4C1201.9 797.3 1141.9 799.9 1078.3 800.4C1069.1 800.5 1059.9 800.5 1050.6 800.5C1050.6 800.5 1052.3 800.1 1055.6 799.6C1063 798.5 1070.4 797.4 1077.7 796.2C1078.7 796.1 1079.7 795.9 1080.6 795.7C1088.3 794.5 1095.9 793.3 1103.6 792.1C1456.5 736.5 1776.8 695.9 2101.6 444.7C2101.7 444.7 2101.8 444.6 2102 444.5Z" fill="#31D4E5"/>
</g>
<defs>
<clipPath id="clip0_344:14">
<rect width="2102" height="800.5" fill="white"/>
</clipPath>
</defs>
</svg>
