<svg width="77" height="62" viewBox="0 0 77 62" fill="none" xmlns="http://www.w3.org/2000/svg">
<path d="M75.075 25.1875H67.375V17.4375C67.375 16.3719 66.5088 15.5 65.45 15.5H61.6C60.5412 15.5 59.675 16.3719 59.675 17.4375V25.1875H51.975C50.9162 25.1875 50.05 26.0594 50.05 27.125V31C50.05 32.0656 50.9162 32.9375 51.975 32.9375H59.675V40.6875C59.675 41.7531 60.5412 42.625 61.6 42.625H65.45C66.5088 42.625 67.375 41.7531 67.375 40.6875V32.9375H75.075C76.1338 32.9375 77 32.0656 77 31V27.125C77 26.0594 76.1338 25.1875 75.075 25.1875ZM26.95 31C35.4561 31 42.35 24.0613 42.35 15.5C42.35 6.93867 35.4561 0 26.95 0C18.4439 0 11.55 6.93867 11.55 15.5C11.55 24.0613 18.4439 31 26.95 31ZM37.73 34.875H35.7208C33.0498 36.1102 30.0781 36.8125 26.95 36.8125C23.8219 36.8125 20.8622 36.1102 18.1792 34.875H16.17C7.24281 34.875 0 42.1648 0 51.15V56.1875C0 59.3965 2.58672 62 5.775 62H48.125C51.3133 62 53.9 59.3965 53.9 56.1875V51.15C53.9 42.1648 46.6572 34.875 37.73 34.875Z" fill="#EF7365"/>
</svg>
