<svg width="68" height="77" viewBox="0 0 68 77" fill="none" xmlns="http://www.w3.org/2000/svg">
<path d="M68 54.1406V3.60938C68 1.60918 66.3759 0 64.3571 0H14.5714C6.52679 0 0 6.4668 0 14.4375V62.5625C0 70.5332 6.52679 77 14.5714 77H64.3571C66.3759 77 68 75.3908 68 73.3906V70.9844C68 69.8564 67.4688 68.8338 66.6491 68.1721C66.0116 65.8561 66.0116 59.2539 66.6491 56.9379C67.4688 56.2912 68 55.2686 68 54.1406ZM19.4286 20.1523C19.4286 19.6561 19.8384 19.25 20.3393 19.25H52.5179C53.0187 19.25 53.4286 19.6561 53.4286 20.1523V23.1602C53.4286 23.6564 53.0187 24.0625 52.5179 24.0625H20.3393C19.8384 24.0625 19.4286 23.6564 19.4286 23.1602V20.1523ZM19.4286 29.7773C19.4286 29.2811 19.8384 28.875 20.3393 28.875H52.5179C53.0187 28.875 53.4286 29.2811 53.4286 29.7773V32.7852C53.4286 33.2814 53.0187 33.6875 52.5179 33.6875H20.3393C19.8384 33.6875 19.4286 33.2814 19.4286 32.7852V29.7773ZM57.8911 67.375H14.5714C11.8848 67.375 9.71429 65.2244 9.71429 62.5625C9.71429 59.9156 11.9 57.75 14.5714 57.75H57.8911C57.6027 60.3217 57.6027 64.8033 57.8911 67.375Z" fill="#ED6A5A"/>
</svg>
