<svg width="35" height="26" viewBox="0 0 35 26" fill="none" xmlns="http://www.w3.org/2000/svg">
<path d="M12.2404 25.1351L12.2404 25.1351L0.865417 13.8037C0.378209 13.3183 0.378179 12.5322 0.865421 12.0467C0.865426 12.0467 0.86543 12.0467 0.865434 12.0467L3.34024 9.58131L3.34025 9.5813C3.82853 9.09484 4.62107 9.09484 5.10935 9.5813L5.10937 9.58132L12.7721 17.2147L13.125 17.5662L13.4779 17.2147L29.8906 0.864811C30.3789 0.378397 31.1715 0.378397 31.6598 0.86481L34.1346 3.33021C34.6218 3.81557 34.6218 4.60175 34.1346 5.08718L14.0096 25.1352C14.0096 25.1352 14.0096 25.1352 14.0096 25.1352C13.5212 25.6216 12.7287 25.6216 12.2404 25.1351Z" stroke="#00E3FF"/>
</svg>
