<svg width="1437" height="605" viewBox="0 0 1437 605" fill="none" xmlns="http://www.w3.org/2000/svg">
<g clip-path="url(#clip0_603_20)">
<circle r="19" transform="matrix(-1 0 0 1 1389 164)" fill="#FFBD00"/>
<circle r="7" transform="matrix(-1 0 0 1 1258 324)" fill="#00E3FF"/>
<circle r="7" transform="matrix(-0.211797 -0.977314 -0.977314 0.211797 37.3237 164.324)" fill="#FFBD00"/>
<circle r="7.5" transform="matrix(-1 0 0 1 760.5 466.5)" fill="#00E3FF"/>
<circle r="7.5" transform="matrix(-0.185562 0.982633 0.982633 0.185562 1137.76 518.761)" fill="#00E3FF"/>
<circle r="7.5" transform="matrix(-0.185562 0.982633 0.982633 0.185562 1370.28 520.233)" fill="#ED6A5A"/>
<circle r="7.5" transform="matrix(-1 0 0 1 226.5 512.5)" fill="#ED6A5A"/>
<circle r="5" transform="matrix(-0.211797 -0.977314 -0.977314 0.211797 82.9456 310.946)" fill="#ED6A5A"/>
<circle r="5" transform="matrix(-1 0 0 1 1207 82)" fill="#FFBD00"/>
<circle r="7.5" transform="matrix(-1 0 0 1 957.5 220.5)" fill="#FFBD00"/>
<path d="M290.946 371.898C234.677 200.247 -88.3719 108.683 -228.22 116.458C-305.411 234.208 -389.703 477.958 -274.46 371.898C-54.5378 169.502 314.254 443 290.946 371.898Z" fill="#ED6A5A"/>
</g>
<defs>
<clipPath id="clip0_603_20">
<rect width="1437" height="605" fill="white"/>
</clipPath>
</defs>
</svg>
