<?xml version="1.0" encoding="utf-8"?>
<!-- Generator: Adobe Illustrator 24.0.2, SVG Export Plug-In . SVG Version: 6.00 Build 0)  -->
<svg version="1.1" xmlns="http://www.w3.org/2000/svg" xmlns:xlink="http://www.w3.org/1999/xlink" x="0px" y="0px"
	 viewBox="0 0 1080 366.5" style="enable-background:new 0 0 1080 366.5;" xml:space="preserve">
<style type="text/css">
	.st0{fill:#ED6A5A;}
	.st1{fill:#F9F9F9;}
</style>
<g id="Capa_1">
	<circle class="st0" cx="1000.5" cy="216" r="18.5"/>
</g>
<g id="Capa_8">
	<path class="st1" d="M837.1,222.9v-40.7c19.6,11.4,39.1,17.1,58.7,17.1c13.7,0,20.5-3.9,20.5-11.6c0-2.2-0.6-4.1-1.7-5.5
		c-1.1-1.4-3.1-2.6-5.8-3.5c-2.8-0.9-5.5-1.7-8.1-2.3c-2.7-0.6-6.4-1.3-11.2-2.1c-4.8-0.8-9-1.7-12.7-2.8
		c-15.1-3.7-26.4-8.9-33.9-15.7c-7.5-6.8-11.3-16.2-11.3-28c0.2-15.5,6.4-27.7,18.7-36.5c12.2-8.9,27.9-13.3,47.1-13.3
		c21.8,0,41,4,57.5,11.9v40.1c-19-10.8-37.8-16.2-56.6-16.2c-13,0-19.6,3.6-19.6,10.7c0,2,0.6,3.8,1.7,5.2c1.1,1.4,3,2.6,5.7,3.5
		c2.6,0.9,5.2,1.6,7.8,2.1c2.5,0.5,6.2,1.2,11,2.1c4.8,0.9,8.9,1.8,12.4,2.6c15.5,3.9,27.1,9.1,34.7,15.7
		c7.6,6.6,11.5,16.1,11.5,28.3c-0.2,16.1-6.6,28.6-19.1,37.6c-12.5,9-28.7,13.5-48.5,13.5C873.5,235.1,854,231,837.1,222.9z"/>
</g>
<g id="Capa_3">
	<path class="st1" d="M670.1,220.4c-9.6-9.8-14.3-25.2-14.3-46.2l0.1-92.7l46.5,0l-0.1,85.6c0,10.4,1.9,17.6,5.8,21.7
		c3.9,4.5,9.4,6.7,16.5,6.7c11,0,21.2-4.5,30.6-13.4l0.1-100.6l46.5,0l-0.2,150.4l-45.9,0l0-14.1l-0.6-0.3
		c-13.7,11.8-29,17.7-45.9,17.7C692.7,235.4,679.6,230.4,670.1,220.4z"/>
</g>
<g id="Capa_4">
	
		<rect x="518.8" y="133.4" transform="matrix(1.006075e-03 -1 1 1.006075e-03 436.7053 750.5189)" class="st1" width="150.4" height="46.5"/>
</g>
<g id="Capa_5">
	<path class="st1" d="M432.5,229.6l-0.1,69.4l-46.5,0l0.2-217.7l45.6,0l0,7.6l0.6,0.3c11-7.5,23.5-11.3,37.3-11.3
		c19.8,0,36.6,7.2,50.4,21.6c13.8,14.4,20.8,33,20.7,55.8c0,23.7-7.5,42.9-22.5,57.6c-15,14.8-33.7,22.1-56.1,22.1
		c-11.2,0-20.9-2-29-5.8L432.5,229.6z M432.5,191.7c7.3,3.9,15.3,5.8,23.8,5.8c11.8,0,21.1-3.7,27.7-11.1c6.6-7.4,10-17,10-28.6
		c0-11.6-3.2-21.4-9.8-29.2c-6.5-7.9-15.4-11.8-26.6-11.8c-9.2,0-17.5,2.7-25.1,8.2L432.5,191.7z"/>
</g>
<g id="Capa_6">
	<path class="st1" d="M264.6,234.9c-13.7,0-25.3-3.3-34.9-9.8c-11.8-8.2-17.7-19.9-17.7-35.2c0-15.9,6.1-28,18.4-36.4
		c10.4-7.1,24.5-10.7,42.2-10.7c9.2,0,17.8,0.9,26,2.8l0-5.8c0-7.1-1.9-12.4-5.8-15.9c-4.7-4.3-12.4-6.4-23.2-6.4
		c-14.7,0-29.4,3.9-44,11.9l0-40.1c15.5-7.7,33-11.6,52.6-11.6c21.8,0,38.5,4.8,50.1,14.4c11.2,9.2,16.8,23.1,16.8,41.6l-0.1,51.1
		c0,8,3,11.9,9.2,11.9c2.6,0,5.2-0.6,7.6-1.8l0,34.9c-5.7,3.1-13.2,4.6-22.3,4.6c-13.9,0-24.7-4-32.4-12l-0.6,0
		C294.9,230.8,280.9,235,264.6,234.9z M277.5,200.7c7.3,0,14.4-2,21.1-6.1l0-22c-4.5-1.4-10-2.2-16.5-2.2
		c-15.9,0-23.9,5.1-23.9,15.3c0,4.7,1.8,8.4,5.5,11C267.4,199.4,272,200.7,277.5,200.7z"/>
</g>
<g id="Capa_7">
	<path class="st1" d="M67.1,222.5l0-40.7c19.6,11.4,39.1,17.2,58.7,17.2c13.7,0,20.5-3.8,20.5-11.6c0-2.2-0.6-4.1-1.7-5.5
		c-1.1-1.4-3.1-2.6-5.8-3.5c-2.8-0.9-5.5-1.7-8.1-2.3c-2.7-0.6-6.4-1.3-11.2-2.2c-4.8-0.8-9-1.7-12.7-2.8
		c-15.1-3.7-26.4-8.9-33.9-15.8c-7.5-6.8-11.3-16.2-11.3-28c0.2-15.5,6.4-27.7,18.7-36.5s27.9-13.3,47.1-13.3c21.8,0,41,4,57.5,12
		l0,40.1c-18.9-10.8-37.8-16.2-56.6-16.3c-13,0-19.6,3.5-19.6,10.7c0,2,0.6,3.8,1.7,5.2c1.1,1.4,3,2.6,5.7,3.5
		c2.6,0.9,5.2,1.6,7.8,2.1c2.5,0.5,6.2,1.2,11,2.2c4.8,0.9,8.9,1.8,12.4,2.6c15.5,3.9,27.1,9.2,34.7,15.8
		c7.6,6.6,11.5,16.1,11.4,28.3c-0.2,16.1-6.6,28.6-19.2,37.6c-12.5,9-28.7,13.4-48.5,13.4C103.5,234.8,84,230.7,67.1,222.5z"/>
</g>
</svg>
